<?xml version="1.0" encoding="utf-8"?>
<!-- Generator: Adobe Illustrator 24.0.3, SVG Export Plug-In . SVG Version: 6.00 Build 0)  -->
<svg version="1.1" id="Isolation_Mode" xmlns="http://www.w3.org/2000/svg" xmlns:xlink="http://www.w3.org/1999/xlink" x="0px"
	 y="0px" viewBox="0 0 603.4 117.6" style="enable-background:new 0 0 603.4 117.6;" xml:space="preserve">
<style type="text/css">
	.st0{fill:#FDBA22;}
	.st1{fill:#FFFFFF;}
	.st2{fill:#0F2244;}
</style>
<g>
	<g>
		<path class="st0" d="M575.4,115H26.6C12.5,115,1,103.5,1,89.4v0c0-14.1,11.5-25.6,25.6-25.6h548.7c14.1,0,25.6,11.5,25.6,25.6v0
			C601,103.5,589.5,115,575.4,115z"/>
		<g>
			<path class="st1" d="M29.6,1L53,51.9h-8.5l-7.6-16.6H15.6L7.7,51.9H3.5L27.5,1H29.6z M17,32.1h18.4l-9.1-19.7L17,32.1z"/>
			<path class="st1" d="M61.3,31.7c0,2.8,0.4,5.4,1.3,7.7c0.9,2.3,2,4.2,3.5,5.7c1.5,1.6,3.3,2.8,5.3,3.6c2,0.8,4.3,1.2,6.7,1.2
				c1.4,0,2.8-0.3,4.1-0.8c1.3-0.6,2.6-1.3,3.7-2.2c1.1-0.9,2.2-1.9,3.1-3c0.9-1.1,1.6-2.2,2.2-3.4l2.9,1.8c-0.8,1.4-1.8,2.7-3,3.9
				c-1.1,1.3-2.5,2.4-4,3.3c-1.5,1-3.2,1.7-5.1,2.3c-1.9,0.6-4,0.9-6.3,0.9c-3.4,0-6.4-0.6-9.2-1.7c-2.8-1.1-5.1-2.6-7.1-4.6
				c-2-1.9-3.5-4.2-4.6-6.7c-1.1-2.6-1.6-5.3-1.6-8.1c0-1.9,0.2-3.8,0.7-5.6c0.5-1.8,1.2-3.5,2.1-5.1c0.9-1.6,2.1-3,3.4-4.4
				c1.3-1.3,2.9-2.5,4.5-3.4c1.7-1,3.5-1.7,5.5-2.2c2-0.5,4.1-0.8,6.4-0.8c2.2,0,4.2,0.3,6,0.9c1.8,0.6,3.5,1.4,5,2.3
				c1.5,1,2.8,2.1,4,3.3c1.2,1.3,2.2,2.6,3,3.9l-3,2c-1.7-3.3-3.6-5.7-5.7-7.2c-2.1-1.5-4.5-2.3-7.3-2.3c-2.4,0-4.6,0.4-6.6,1.3
				c-2,0.9-3.8,2.1-5.4,3.7c-1.5,1.6-2.7,3.5-3.6,5.8C61.8,26.3,61.3,28.9,61.3,31.7z"/>
			<path class="st1" d="M106.9,31.7c0,2.8,0.4,5.4,1.3,7.7c0.9,2.3,2,4.2,3.5,5.7c1.5,1.6,3.3,2.8,5.3,3.6c2,0.8,4.3,1.2,6.7,1.2
				c1.4,0,2.8-0.3,4.1-0.8c1.3-0.6,2.6-1.3,3.7-2.2c1.1-0.9,2.2-1.9,3.1-3c0.9-1.1,1.6-2.2,2.2-3.4l2.9,1.8c-0.8,1.4-1.8,2.7-3,3.9
				c-1.1,1.3-2.5,2.4-4,3.3c-1.5,1-3.2,1.7-5.1,2.3c-1.9,0.6-4,0.9-6.3,0.9c-3.4,0-6.4-0.6-9.2-1.7s-5.1-2.6-7.1-4.6
				c-2-1.9-3.5-4.2-4.6-6.7c-1.1-2.6-1.6-5.3-1.6-8.1c0-1.9,0.2-3.8,0.7-5.6c0.5-1.8,1.2-3.5,2.1-5.1c0.9-1.6,2.1-3,3.4-4.4
				c1.3-1.3,2.9-2.5,4.5-3.4c1.7-1,3.5-1.7,5.5-2.2c2-0.5,4.1-0.8,6.4-0.8c2.2,0,4.2,0.3,6,0.9c1.8,0.6,3.5,1.4,5,2.3
				c1.5,1,2.8,2.1,4,3.3c1.2,1.3,2.2,2.6,3,3.9l-3,2c-1.7-3.3-3.6-5.7-5.7-7.2c-2.1-1.5-4.5-2.3-7.3-2.3c-2.4,0-4.6,0.4-6.6,1.3
				c-2,0.9-3.8,2.1-5.4,3.7c-1.5,1.6-2.7,3.5-3.6,5.8C107.4,26.3,106.9,28.9,106.9,31.7z"/>
			<path class="st1" d="M174.4,11.3v2.6h-21.4v14.5h14.4v2.6h-14.4v18.2h21.4v2.6h-28.3V11.3H174.4z"/>
			<path class="st1" d="M179.3,11.3h3.8L209.7,41h0.3V11.3h3v41.6h-1.6l-28.9-33.1h-0.2v32.1h-3.1V11.3z"/>
			<path class="st1" d="M252.9,11.3v2.6h-14.7v38h-6.8v-38h-14.7v-2.6H252.9z"/>
			<path class="st1" d="M294.8,52.9c-3.1,0-6.1-0.6-8.8-1.7c-2.7-1.1-5.1-2.7-7.1-4.6c-2-2-3.6-4.2-4.8-6.8
				c-1.2-2.6-1.7-5.4-1.7-8.4c0-1.9,0.3-3.8,0.8-5.6c0.5-1.8,1.3-3.5,2.2-5c1-1.6,2.1-3,3.5-4.2c1.4-1.3,2.9-2.4,4.5-3.3
				c1.7-0.9,3.4-1.6,5.4-2.1c1.9-0.5,3.9-0.8,6-0.8s4.1,0.3,6,0.8c1.9,0.5,3.7,1.2,5.4,2.1c1.7,0.9,3.2,2,4.5,3.3
				c1.3,1.3,2.5,2.7,3.5,4.2c1,1.6,1.7,3.2,2.2,5c0.5,1.8,0.8,3.7,0.8,5.6c0,2-0.3,3.9-0.8,5.7c-0.5,1.8-1.3,3.5-2.2,5.1
				c-1,1.6-2.1,3-3.5,4.4c-1.3,1.3-2.9,2.4-4.5,3.4c-1.7,0.9-3.5,1.7-5.4,2.2C298.9,52.6,296.9,52.9,294.8,52.9z M294.8,50.9
				c2.3,0,4.4-0.5,6.2-1.5c1.8-1,3.3-2.3,4.5-4.1c1.2-1.7,2.2-3.8,2.8-6.2c0.6-2.4,0.9-5,0.9-7.8c0-2.8-0.3-5.4-0.9-7.7
				c-0.6-2.3-1.5-4.3-2.8-6c-1.2-1.7-2.7-3-4.5-3.9c-1.8-0.9-3.8-1.4-6.2-1.4c-2.4,0-4.5,0.5-6.2,1.4c-1.8,0.9-3.3,2.2-4.5,3.9
				c-1.2,1.7-2.1,3.7-2.7,6c-0.6,2.3-0.9,4.9-0.9,7.7c0,2.8,0.3,5.4,0.9,7.8c0.6,2.4,1.5,4.4,2.7,6.2c1.2,1.7,2.7,3.1,4.5,4.1
				S292.4,50.9,294.8,50.9z"/>
			<path class="st1" d="M323.3,11.3h3.8L353.8,41h0.3V11.3h3v41.6h-1.6l-28.9-33.1h-0.2v32.1h-3.1V11.3z"/>
			<path class="st1" d="M421.1,2.1v3.2h-18v46.6h-8.4V5.4h-18V2.1H421.1z"/>
			<path class="st1" d="M424.2,11.3h14.1c2.4,0,4.6,0.3,6.4,0.8c1.8,0.5,3.4,1.3,4.6,2.2c1.2,0.9,2.2,2.1,2.8,3.4
				c0.6,1.3,0.9,2.7,0.9,4.2c0,1.3-0.2,2.5-0.7,3.6s-1.2,2.1-2,3c-0.9,0.9-1.9,1.7-3.1,2.3c-1.2,0.6-2.6,1.1-4,1.5L458,51.9H450
				l-14.1-19.1h-4.8v19.1h-6.8V11.3z M431.1,30.8h4c1.5,0,2.9-0.2,4.2-0.6c1.3-0.4,2.4-1,3.4-1.7c1-0.7,1.7-1.7,2.2-2.7
				c0.5-1.1,0.8-2.3,0.8-3.6c0-1.2-0.2-2.4-0.6-3.4c-0.4-1-1-1.9-1.8-2.6c-0.8-0.7-1.7-1.3-2.7-1.7c-1.1-0.4-2.2-0.6-3.5-0.6h-6
				V30.8z"/>
			<path class="st1" d="M476.3,10.3l19.1,41.6h-7l-6.2-13.6h-17.5l-6.4,13.6H455l19.6-41.6H476.3z M466,35.7h15l-7.4-16.1L466,35.7z
				"/>
			<path class="st1" d="M499.7,11.3l15.4,32.4l14.3-32.4h3.3l-18.5,41.6h-1.8l-19.8-41.6H499.7z"/>
			<path class="st1" d="M563.4,11.3v2.6H542v14.5h14.4v2.6H542v18.2h21.4v2.6h-28.3V11.3H563.4z"/>
			<path class="st1" d="M568.3,11.3h6.8v38h20.5v2.6h-27.3V11.3z"/>
		</g>
		<g>
			<path class="st2" d="M149.2,88.3c0,1.6,0.2,3.1,0.7,4.4c0.5,1.3,1.2,2.4,2,3.3c0.9,0.9,1.9,1.6,3,2.1s2.4,0.7,3.8,0.7
				c0.8,0,1.6-0.2,2.4-0.5c0.8-0.3,1.5-0.7,2.1-1.2c0.6-0.5,1.2-1.1,1.7-1.7c0.5-0.6,0.9-1.3,1.3-1.9l1.6,1.1
				c-0.5,0.8-1,1.5-1.7,2.3c-0.7,0.7-1.4,1.4-2.3,1.9c-0.9,0.6-1.8,1-2.9,1.3c-1.1,0.3-2.3,0.5-3.6,0.5c-1.9,0-3.7-0.3-5.2-1
				c-1.6-0.6-2.9-1.5-4-2.6c-1.1-1.1-2-2.4-2.6-3.8c-0.6-1.5-0.9-3-0.9-4.7c0-1.1,0.1-2.1,0.4-3.2c0.3-1,0.7-2,1.2-2.9
				c0.5-0.9,1.2-1.7,1.9-2.5c0.8-0.8,1.6-1.4,2.6-1.9c1-0.5,2-1,3.2-1.3c1.1-0.3,2.4-0.4,3.7-0.4c1.2,0,2.4,0.2,3.4,0.5
				s2,0.8,2.9,1.3c0.9,0.5,1.6,1.2,2.3,1.9c0.7,0.7,1.2,1.5,1.7,2.3l-1.7,1.1c-1-1.9-2.1-3.3-3.3-4.1c-1.2-0.9-2.6-1.3-4.2-1.3
				c-1.3,0-2.6,0.2-3.8,0.7c-1.2,0.5-2.2,1.2-3.1,2.1s-1.6,2-2.1,3.3C149.5,85.2,149.2,86.6,149.2,88.3z"/>
			<path class="st2" d="M174.2,81.5h0.5l0.5,3.7c0.3-0.5,0.6-1,1.1-1.5c0.4-0.4,0.9-0.8,1.4-1.2c0.5-0.3,1-0.6,1.6-0.8
				c0.6-0.2,1.1-0.3,1.7-0.3c0.5,0,1,0.1,1.6,0.2c0.5,0.1,1,0.4,1.4,0.7l-1.1,3c-0.2-0.3-0.5-0.5-0.7-0.6c-0.3-0.2-0.5-0.3-0.8-0.4
				c-0.3-0.1-0.5-0.1-0.8-0.2c-0.3,0-0.6,0-0.8,0c-0.4,0-0.9,0.1-1.3,0.2c-0.4,0.1-0.8,0.3-1.2,0.6c-0.4,0.3-0.7,0.6-1.1,1
				c-0.3,0.4-0.6,0.9-0.9,1.4v12.5h-3.6V82.5L174.2,81.5z"/>
			<path class="st2" d="M188.9,81.9v12.8c0,0.4,0.1,0.9,0.3,1.3c0.2,0.4,0.5,0.7,0.9,1c0.4,0.3,0.8,0.5,1.3,0.7
				c0.5,0.2,1,0.3,1.5,0.3c0.4,0,0.7-0.1,1.1-0.2c0.4-0.2,0.8-0.4,1.2-0.6c0.4-0.3,0.7-0.6,1.1-0.9c0.3-0.4,0.6-0.7,0.9-1.1V81.9
				h3.5v17.9h-3.5v-3.4c-0.3,0.5-0.7,1-1.2,1.5c-0.5,0.5-1,0.9-1.5,1.2c-0.5,0.3-1.1,0.6-1.7,0.8c-0.6,0.2-1.1,0.3-1.7,0.3
				c-0.8,0-1.5-0.1-2.2-0.4c-0.7-0.3-1.3-0.7-1.8-1.2c-0.5-0.5-0.9-1.1-1.2-1.8c-0.3-0.7-0.4-1.4-0.4-2.2V81.9H188.9z"/>
			<path class="st2" d="M205.2,75c0-0.3,0.1-0.5,0.2-0.8s0.3-0.5,0.4-0.6c0.2-0.2,0.4-0.3,0.6-0.4c0.2-0.1,0.5-0.2,0.8-0.2
				c0.3,0,0.5,0.1,0.8,0.2c0.2,0.1,0.5,0.3,0.6,0.4c0.2,0.2,0.3,0.4,0.4,0.6c0.1,0.2,0.2,0.5,0.2,0.8s-0.1,0.5-0.2,0.8
				c-0.1,0.2-0.3,0.5-0.4,0.6c-0.2,0.2-0.4,0.3-0.6,0.4c-0.2,0.1-0.5,0.2-0.8,0.2c-0.3,0-0.5-0.1-0.8-0.2c-0.2-0.1-0.5-0.3-0.6-0.4
				c-0.2-0.2-0.3-0.4-0.4-0.6C205.2,75.5,205.2,75.3,205.2,75z M205.4,82.5l2.5-1h1v18.3h-3.5V82.5z"/>
			<path class="st2" d="M219.2,98.9c0.5,0,0.9-0.1,1.3-0.2c0.4-0.1,0.8-0.3,1.1-0.6c0.3-0.2,0.5-0.5,0.7-0.9c0.2-0.3,0.2-0.7,0.2-1
				c0-0.6-0.1-1-0.4-1.4c-0.3-0.4-0.6-0.8-1.1-1.1c-0.4-0.3-1-0.6-1.5-0.9c-0.6-0.3-1.2-0.5-1.8-0.8c-0.6-0.3-1.2-0.6-1.8-0.9
				c-0.6-0.3-1.1-0.7-1.5-1.1c-0.5-0.4-0.8-0.9-1.1-1.5c-0.3-0.6-0.4-1.2-0.4-2c0-0.7,0.2-1.4,0.5-2c0.3-0.6,0.7-1.1,1.3-1.6
				c0.5-0.4,1.2-0.8,1.9-1c0.8-0.3,1.6-0.4,2.5-0.4c0.6,0,1.2,0,1.7,0.1c0.5,0.1,1,0.2,1.5,0.5c0.5,0.2,1,0.6,1.5,1s1,1,1.6,1.7
				l-1.3,1.2c-0.7-1.1-1.4-1.9-2.3-2.5c-0.8-0.5-1.7-0.8-2.7-0.8c-0.5,0-1,0.1-1.4,0.2s-0.8,0.3-1.1,0.5c-0.3,0.2-0.5,0.5-0.7,0.8
				c-0.2,0.3-0.3,0.6-0.3,0.9c0,0.5,0.2,1,0.4,1.4c0.3,0.4,0.7,0.8,1.2,1.1c0.5,0.3,1,0.6,1.7,0.9c0.6,0.3,1.3,0.5,1.9,0.8
				c0.7,0.3,1.3,0.6,1.9,0.9c0.6,0.3,1.2,0.7,1.7,1.1c0.5,0.4,0.9,0.9,1.2,1.5c0.3,0.6,0.5,1.2,0.5,2c0,0.8-0.1,1.5-0.4,2.1
				c-0.3,0.7-0.7,1.2-1.3,1.7c-0.6,0.5-1.3,0.9-2.1,1.1c-0.9,0.3-1.9,0.4-3,0.4c-0.5,0-1.1,0-1.6-0.1c-0.6-0.1-1.1-0.2-1.7-0.5
				c-0.6-0.2-1.1-0.6-1.7-1c-0.6-0.4-1.1-1-1.6-1.7l1.5-1.3c0.4,0.6,0.8,1.1,1.2,1.5c0.4,0.4,0.8,0.8,1.2,1.1
				c0.4,0.3,0.8,0.5,1.3,0.6C218.2,98.9,218.6,98.9,219.2,98.9z"/>
			<path class="st2" d="M236.8,100.2c-1.2,0-2.4-0.2-3.4-0.7c-1.1-0.5-2-1.1-2.8-1.9c-0.8-0.8-1.4-1.7-1.9-2.8
				c-0.5-1.1-0.7-2.2-0.7-3.4c0-1.4,0.2-2.8,0.6-4c0.4-1.2,1-2.3,1.8-3.2c0.8-0.9,1.7-1.6,2.8-2.1c1.1-0.5,2.3-0.8,3.6-0.8
				c1.2,0,2.2,0.2,3.2,0.6c1,0.4,1.8,1,2.5,1.7c0.7,0.7,1.3,1.5,1.6,2.4c0.4,0.9,0.6,1.9,0.6,2.9h-13.4c0,1.2,0.2,2.3,0.5,3.3
				c0.3,1,0.7,1.9,1.3,2.7c0.6,0.7,1.2,1.3,2,1.8c0.8,0.4,1.6,0.6,2.5,0.6c0.8,0,1.5-0.1,2.2-0.4c0.7-0.3,1.4-0.6,1.9-1
				c0.6-0.4,1.1-0.9,1.5-1.4s0.7-1.1,0.9-1.6l1,0.5c-0.3,0.9-0.7,1.8-1.2,2.6c-0.6,0.8-1.2,1.5-2,2.1c-0.8,0.6-1.6,1.1-2.5,1.4
				C238.7,100,237.8,100.2,236.8,100.2z M240.4,87.6c0-0.7-0.1-1.3-0.4-1.9c-0.2-0.6-0.6-1.1-1-1.5c-0.4-0.4-0.9-0.8-1.5-1
				c-0.6-0.2-1.2-0.4-1.8-0.4c-0.5,0-1.1,0.1-1.5,0.4c-0.5,0.2-0.9,0.6-1.3,1c-0.4,0.4-0.7,0.9-1,1.5c-0.3,0.6-0.4,1.2-0.4,1.9
				L240.4,87.6z"/>
			<path class="st2" d="M274.4,87.3c-0.1,0.8-0.3,1.6-0.5,2.2c-0.2,0.7-0.4,1.3-0.7,1.8c-0.3,0.6-0.6,1.1-1,1.7
				c-0.4,0.5-0.8,1.1-1.3,1.7c0.9,0.9,1.8,1.6,2.6,2.2c0.8,0.5,1.5,0.8,2.2,0.8c0.9,0,1.6-0.2,2.2-0.5c0.6-0.3,1.1-1,1.5-1.8
				l0.7,0.2c-0.2,0.8-0.4,1.4-0.7,2c-0.3,0.6-0.8,1.1-1.3,1.5c-0.5,0.4-1.1,0.7-1.7,0.9c-0.6,0.2-1.3,0.3-2.1,0.3
				c-1,0-1.9-0.3-3-0.8c-1-0.5-2-1.3-3-2.2c-1.1,0.9-2.4,1.6-3.7,2.2c-1.4,0.6-2.8,0.8-4.4,0.8c-1.1,0-2-0.1-2.8-0.4
				c-0.8-0.2-1.4-0.6-1.9-1c-0.5-0.4-0.8-1-1.1-1.6c-0.2-0.6-0.3-1.3-0.3-2.1c0-1.1,0.2-2,0.6-2.8c0.4-0.8,0.9-1.6,1.6-2.2
				c0.7-0.7,1.4-1.2,2.3-1.7c0.8-0.5,1.7-1,2.6-1.4c-0.5-1-0.9-2-1.2-2.8c-0.3-0.9-0.4-1.6-0.4-2.2c0-0.8,0.1-1.5,0.4-2.2
				c0.3-0.7,0.6-1.4,1.1-1.9c0.5-0.6,1.1-1,1.9-1.3c0.8-0.3,1.6-0.5,2.6-0.5c0.7,0,1.5,0.1,2.1,0.3c0.7,0.2,1.2,0.5,1.7,0.9
				c0.5,0.4,0.9,0.9,1.2,1.5c0.3,0.6,0.4,1.3,0.4,2c0,0.8-0.2,1.4-0.5,2c-0.4,0.6-0.8,1.1-1.4,1.5c-0.6,0.5-1.2,0.9-2,1.2
				c-0.7,0.4-1.5,0.7-2.3,1.1c0.6,1.2,1.3,2.3,2.2,3.4c0.9,1.1,1.8,2.3,2.8,3.4c1.2-1.3,2-2.5,2.6-3.6c0.6-1.1,1-2.1,1.1-2.9
				L274.4,87.3z M261.7,88.3c-0.6,0.3-1.1,0.7-1.6,1.1c-0.5,0.4-0.9,0.8-1.3,1.3c-0.4,0.5-0.6,0.9-0.9,1.5c-0.2,0.5-0.3,1.1-0.3,1.6
				c0,0.6,0.1,1.2,0.3,1.8c0.2,0.5,0.5,1,0.9,1.4s0.8,0.7,1.4,1c0.5,0.2,1.2,0.4,1.8,0.4c0.9,0,1.8-0.2,2.6-0.6
				c0.8-0.4,1.6-0.9,2.4-1.5c-0.5-0.6-1-1.2-1.5-1.8c-0.5-0.6-1-1.3-1.4-2c-0.4-0.7-0.9-1.4-1.3-2.1
				C262.5,89.6,262.1,88.9,261.7,88.3z M264.2,85.7c0.6-0.3,1.2-0.6,1.7-1c0.5-0.3,1-0.7,1.4-1.1c0.4-0.4,0.7-0.8,0.9-1.3
				c0.2-0.5,0.3-1,0.3-1.6c0-0.6-0.1-1.1-0.2-1.5c-0.1-0.4-0.3-0.8-0.6-1.1c-0.3-0.3-0.5-0.5-0.9-0.7c-0.3-0.2-0.7-0.2-1.1-0.2
				c-0.4,0-0.8,0.1-1.2,0.3c-0.4,0.2-0.7,0.5-0.9,0.9c-0.3,0.4-0.5,0.8-0.6,1.2c-0.2,0.4-0.2,0.9-0.2,1.3c0,0.7,0.1,1.5,0.4,2.3
				C263.4,84,263.8,84.9,264.2,85.7z"/>
			<path class="st2" d="M310.9,76.6v1.5h-8.4v21.7h-3.9V78.1h-8.4v-1.5H310.9z"/>
			<path class="st2" d="M321.2,100.2c-1.4,0-2.6-0.2-3.8-0.7c-1.2-0.5-2.2-1.1-3-2c-0.8-0.8-1.5-1.8-2-2.9c-0.5-1.1-0.7-2.3-0.7-3.5
				c0-1.3,0.2-2.6,0.7-3.7c0.5-1.2,1.1-2.2,2-3c0.8-0.9,1.8-1.5,3-2c1.2-0.5,2.4-0.7,3.8-0.7c1.4,0,2.6,0.2,3.8,0.7
				c1.2,0.5,2.1,1.1,3,1.9c0.8,0.8,1.5,1.7,2,2.8c0.5,1.1,0.7,2.2,0.7,3.4c0,1.4-0.2,2.6-0.7,3.8c-0.5,1.2-1.1,2.2-2,3.1
				s-1.8,1.6-3,2.1C323.8,99.9,322.6,100.2,321.2,100.2z M321.9,98.9c0.7,0,1.3-0.2,1.9-0.5c0.6-0.4,1.1-0.9,1.5-1.5
				c0.4-0.6,0.7-1.3,1-2.1c0.2-0.8,0.4-1.7,0.4-2.6c0-1.3-0.1-2.5-0.3-3.6c-0.2-1.1-0.6-2.1-1.1-3c-0.5-0.8-1.2-1.5-2-2
				c-0.8-0.5-1.8-0.7-2.9-0.7c-0.6,0-1.2,0.2-1.7,0.5c-0.6,0.3-1.1,0.8-1.5,1.4c-0.4,0.6-0.8,1.3-1,2.1c-0.3,0.8-0.4,1.7-0.4,2.6
				c0,1.3,0.1,2.5,0.4,3.7c0.3,1.1,0.7,2.1,1.2,3c0.5,0.9,1.2,1.5,1.9,2C320,98.6,320.9,98.9,321.9,98.9z"/>
			<path class="st2" d="M337.5,81.9v12.8c0,0.4,0.1,0.9,0.3,1.3c0.2,0.4,0.5,0.7,0.9,1c0.4,0.3,0.8,0.5,1.3,0.7
				c0.5,0.2,1,0.3,1.5,0.3c0.4,0,0.7-0.1,1.1-0.2c0.4-0.2,0.8-0.4,1.2-0.6c0.4-0.3,0.7-0.6,1.1-0.9c0.3-0.4,0.6-0.7,0.8-1.1V81.9
				h3.5v17.9h-3.5v-3.4c-0.3,0.5-0.7,1-1.2,1.5c-0.5,0.5-1,0.9-1.5,1.2c-0.5,0.3-1.1,0.6-1.7,0.8c-0.6,0.2-1.1,0.3-1.7,0.3
				c-0.8,0-1.5-0.1-2.2-0.4c-0.7-0.3-1.3-0.7-1.8-1.2c-0.5-0.5-0.9-1.1-1.2-1.8c-0.3-0.7-0.4-1.4-0.4-2.2V81.9H337.5z"/>
			<path class="st2" d="M356.3,81.5h0.5l0.5,3.7c0.3-0.5,0.6-1,1.1-1.5c0.4-0.4,0.9-0.8,1.4-1.2c0.5-0.3,1-0.6,1.6-0.8
				c0.6-0.2,1.1-0.3,1.7-0.3c0.5,0,1,0.1,1.5,0.2c0.5,0.1,1,0.4,1.4,0.7l-1.1,3c-0.2-0.3-0.5-0.5-0.7-0.6s-0.5-0.3-0.8-0.4
				c-0.3-0.1-0.5-0.1-0.8-0.2c-0.3,0-0.6,0-0.8,0c-0.4,0-0.9,0.1-1.3,0.2c-0.4,0.1-0.8,0.3-1.2,0.6c-0.4,0.3-0.7,0.6-1.1,1
				c-0.3,0.4-0.6,0.9-0.9,1.4v12.5h-3.6V82.5L356.3,81.5z"/>
			<path class="st2" d="M378.6,76.6h7.7c2.4,0,4.4,0.2,6.2,0.7c1.7,0.4,3.2,1.2,4.3,2.1c1.3,1.1,2.3,2.4,3,3.9c0.7,1.4,1,3,1,4.8
				c0,1.6-0.3,3.2-0.9,4.6c-0.6,1.4-1.5,2.7-2.6,3.8c-1.1,1.1-2.5,1.9-4.2,2.5c-1.7,0.6-3.6,0.9-5.8,0.9h-8.7V76.6z M382.5,98.1h4.2
				c1.3,0,2.5-0.2,3.7-0.6c1.2-0.4,2.2-1.1,3-1.9c0.9-0.9,1.5-1.9,2-3.1c0.5-1.2,0.7-2.7,0.7-4.3c0-1.4-0.2-2.8-0.7-4
				c-0.5-1.2-1.1-2.2-2-3.1c-0.8-0.9-1.8-1.5-3-2c-1.2-0.5-2.4-0.7-3.8-0.7h-4.2V98.1z"/>
			<path class="st2" d="M411.8,100.2c-1.2,0-2.4-0.2-3.4-0.7c-1.1-0.5-2-1.1-2.8-1.9c-0.8-0.8-1.4-1.7-1.9-2.8
				c-0.5-1.1-0.7-2.2-0.7-3.4c0-1.4,0.2-2.8,0.6-4c0.4-1.2,1-2.3,1.8-3.2c0.8-0.9,1.7-1.6,2.8-2.1c1.1-0.5,2.3-0.8,3.6-0.8
				c1.2,0,2.2,0.2,3.2,0.6c1,0.4,1.8,1,2.5,1.7c0.7,0.7,1.3,1.5,1.6,2.4c0.4,0.9,0.6,1.9,0.6,2.9h-13.4c0,1.2,0.2,2.3,0.5,3.3
				c0.3,1,0.7,1.9,1.3,2.7c0.6,0.7,1.2,1.3,2,1.8c0.8,0.4,1.6,0.6,2.5,0.6c0.8,0,1.5-0.1,2.2-0.4c0.7-0.3,1.4-0.6,1.9-1
				c0.6-0.4,1.1-0.9,1.5-1.4c0.4-0.5,0.7-1.1,0.9-1.6l1,0.5c-0.3,0.9-0.7,1.8-1.2,2.6c-0.6,0.8-1.2,1.5-2,2.1
				c-0.8,0.6-1.6,1.1-2.5,1.4C413.6,100,412.7,100.2,411.8,100.2z M415.3,87.6c0-0.7-0.1-1.3-0.4-1.9c-0.2-0.6-0.6-1.1-1-1.5
				c-0.4-0.4-0.9-0.8-1.5-1c-0.6-0.2-1.2-0.4-1.8-0.4c-0.5,0-1.1,0.1-1.5,0.4c-0.5,0.2-0.9,0.6-1.3,1c-0.4,0.4-0.7,0.9-1,1.5
				c-0.3,0.6-0.4,1.2-0.4,1.9L415.3,87.6z"/>
			<path class="st2" d="M429,98.9c0.5,0,0.9-0.1,1.3-0.2c0.4-0.1,0.8-0.3,1.1-0.6c0.3-0.2,0.5-0.5,0.7-0.9c0.2-0.3,0.2-0.7,0.2-1
				c0-0.6-0.1-1-0.4-1.4c-0.3-0.4-0.6-0.8-1.1-1.1c-0.4-0.3-1-0.6-1.5-0.9c-0.6-0.3-1.2-0.5-1.8-0.8c-0.6-0.3-1.2-0.6-1.8-0.9
				c-0.6-0.3-1.1-0.7-1.5-1.1c-0.5-0.4-0.8-0.9-1.1-1.5c-0.3-0.6-0.4-1.2-0.4-2c0-0.7,0.2-1.4,0.5-2c0.3-0.6,0.7-1.1,1.3-1.6
				c0.5-0.4,1.2-0.8,1.9-1c0.7-0.3,1.6-0.4,2.5-0.4c0.6,0,1.2,0,1.7,0.1c0.5,0.1,1,0.2,1.5,0.5c0.5,0.2,1,0.6,1.5,1s1,1,1.6,1.7
				l-1.3,1.2c-0.7-1.1-1.4-1.9-2.3-2.5c-0.8-0.5-1.7-0.8-2.7-0.8c-0.5,0-1,0.1-1.4,0.2s-0.8,0.3-1.1,0.5c-0.3,0.2-0.5,0.5-0.7,0.8
				c-0.2,0.3-0.3,0.6-0.3,0.9c0,0.5,0.2,1,0.4,1.4c0.3,0.4,0.7,0.8,1.2,1.1c0.5,0.3,1,0.6,1.7,0.9c0.6,0.3,1.3,0.5,1.9,0.8
				c0.7,0.3,1.3,0.6,1.9,0.9c0.6,0.3,1.2,0.7,1.7,1.1c0.5,0.4,0.9,0.9,1.2,1.5c0.3,0.6,0.4,1.2,0.4,2c0,0.8-0.1,1.5-0.4,2.1
				c-0.3,0.7-0.7,1.2-1.3,1.7c-0.6,0.5-1.3,0.9-2.1,1.1c-0.9,0.3-1.9,0.4-3,0.4c-0.5,0-1.1,0-1.6-0.1c-0.6-0.1-1.1-0.2-1.7-0.5
				c-0.6-0.2-1.1-0.6-1.7-1c-0.6-0.4-1.1-1-1.6-1.7l1.5-1.3c0.4,0.6,0.8,1.1,1.2,1.5c0.4,0.4,0.8,0.8,1.2,1.1
				c0.4,0.3,0.8,0.5,1.3,0.6C428,98.9,428.4,98.9,429,98.9z"/>
			<path class="st2" d="M439.1,75c0-0.3,0.1-0.5,0.2-0.8s0.3-0.5,0.4-0.6c0.2-0.2,0.4-0.3,0.6-0.4c0.2-0.1,0.5-0.2,0.8-0.2
				s0.5,0.1,0.8,0.2c0.2,0.1,0.5,0.3,0.6,0.4c0.2,0.2,0.3,0.4,0.4,0.6c0.1,0.2,0.2,0.5,0.2,0.8s-0.1,0.5-0.2,0.8
				c-0.1,0.2-0.3,0.5-0.4,0.6c-0.2,0.2-0.4,0.3-0.6,0.4c-0.2,0.1-0.5,0.2-0.8,0.2s-0.5-0.1-0.8-0.2c-0.2-0.1-0.5-0.3-0.6-0.4
				c-0.2-0.2-0.3-0.4-0.4-0.6C439.1,75.5,439.1,75.3,439.1,75z M439.3,82.5l2.5-1h1v18.3h-3.5V82.5z"/>
			<path class="st2" d="M464.5,82.8v1.5h-3.4c0.3,0.5,0.6,1,0.8,1.6c0.2,0.6,0.3,1.2,0.3,1.8c0,0.9-0.2,1.8-0.6,2.5
				c-0.4,0.8-1,1.4-1.7,2c-0.7,0.5-1.6,1-2.6,1.3c-1,0.3-2.1,0.4-3.4,0.4c-0.5,0-0.9,0-1.4-0.1c-0.5-0.1-0.9-0.2-1.2-0.3
				c-0.3,0.3-0.6,0.6-0.9,1c-0.2,0.4-0.4,0.7-0.4,1.1c0,0.4,0.2,0.6,0.6,0.9c0.4,0.2,0.9,0.3,1.7,0.4l6.6,0.3c1.1,0,1.9,0.2,2.7,0.4
				c0.7,0.2,1.3,0.5,1.7,0.8c0.4,0.3,0.7,0.8,0.9,1.2c0.2,0.5,0.3,1,0.3,1.6c0,1-0.2,2-0.7,2.8c-0.5,0.8-1.2,1.6-2.1,2.2
				c-0.9,0.6-2,1.1-3.3,1.4c-1.3,0.3-2.8,0.5-4.5,0.5c-1.5,0-2.8-0.1-3.9-0.3c-1.1-0.2-2-0.4-2.8-0.7c-0.7-0.3-1.3-0.7-1.6-1.2
				c-0.4-0.4-0.5-1-0.5-1.5c0-0.5,0.1-1,0.4-1.4c0.2-0.4,0.6-0.9,0.9-1.3c0.4-0.4,0.8-0.8,1.3-1.2c0.5-0.4,0.9-0.8,1.4-1.1
				c-0.3-0.1-0.6-0.2-0.9-0.4c-0.3-0.1-0.5-0.3-0.7-0.5c-0.2-0.2-0.4-0.4-0.5-0.6c-0.1-0.2-0.2-0.4-0.2-0.7c0-0.4,0.1-0.7,0.3-1.1
				c0.2-0.4,0.5-0.8,0.8-1.1c0.3-0.4,0.7-0.7,1.2-1c0.4-0.3,0.9-0.5,1.4-0.7c-1.2-0.5-2.1-1.2-2.8-2.1c-0.7-0.9-1-2-1-3.2
				c0-0.9,0.2-1.7,0.6-2.5c0.4-0.8,1-1.5,1.7-2.1c0.7-0.6,1.5-1,2.5-1.4c1-0.3,2-0.5,3.1-0.5c0.5,0,1.1,0,1.6,0.1
				c0.5,0.1,1,0.2,1.5,0.3c0.5,0.1,0.8,0.3,1.2,0.4c0.3,0.2,0.6,0.3,0.8,0.5H464.5z M450.1,99.7c-0.3,0.2-0.5,0.4-0.7,0.7
				s-0.4,0.5-0.5,0.8c-0.1,0.3-0.2,0.5-0.3,0.8c-0.1,0.3-0.1,0.5-0.1,0.8c0,0.4,0.1,0.8,0.4,1.1c0.3,0.4,0.7,0.7,1.3,1
				c0.6,0.3,1.3,0.5,2.1,0.7c0.8,0.2,1.8,0.2,3,0.2c1.2,0,2.3-0.1,3.2-0.3c0.9-0.2,1.7-0.4,2.4-0.7c0.7-0.3,1.2-0.7,1.5-1
				c0.3-0.4,0.5-0.8,0.5-1.1c0-0.4-0.1-0.7-0.3-1c-0.2-0.3-0.5-0.5-0.9-0.7c-0.4-0.2-0.9-0.3-1.4-0.4c-0.5-0.1-1.2-0.1-1.9-0.1
				c-0.9,0-1.7,0-2.6-0.1c-0.9,0-1.7-0.1-2.5-0.1c-0.8-0.1-1.4-0.1-2-0.2C450.8,99.7,450.4,99.7,450.1,99.7z M454.6,93.1
				c0.5,0,1-0.1,1.5-0.3c0.5-0.2,0.9-0.5,1.2-0.9c0.4-0.4,0.6-0.9,0.9-1.4c0.2-0.5,0.3-1.1,0.3-1.7c0-0.9-0.1-1.7-0.4-2.4
				c-0.2-0.8-0.6-1.4-1-2c-0.4-0.6-0.9-1-1.4-1.3c-0.5-0.3-1.1-0.5-1.7-0.5c-0.6,0-1.1,0.1-1.5,0.4c-0.4,0.2-0.8,0.6-1.1,1
				s-0.5,1-0.6,1.5c-0.1,0.6-0.2,1.2-0.2,1.9c0,0.8,0.1,1.6,0.3,2.3c0.2,0.7,0.5,1.3,0.8,1.8c0.4,0.5,0.8,0.9,1.3,1.2
				C453.4,92.9,454,93.1,454.6,93.1z"/>
			<path class="st2" d="M468.6,81.5h1v3.6c1.1-1.2,2.2-2.1,3.4-2.7c1.2-0.6,2.4-0.9,3.6-0.9c0.6,0,1.2,0.1,1.8,0.4
				c0.5,0.3,1,0.7,1.4,1.2c0.4,0.5,0.7,1.1,1,1.7c0.2,0.7,0.4,1.4,0.4,2.1v12.9h-3.6V87.6c0-0.6-0.1-1.1-0.2-1.6
				c-0.1-0.4-0.3-0.8-0.6-1.1c-0.3-0.3-0.6-0.5-0.9-0.7c-0.3-0.2-0.7-0.2-1.1-0.2c-0.4,0-0.8,0.1-1.2,0.2c-0.4,0.1-0.8,0.3-1.3,0.5
				c-0.4,0.2-0.9,0.5-1.3,0.8c-0.4,0.3-0.8,0.7-1.2,1.1v13.3H466V82.5L468.6,81.5z"/>
			<path class="st2" d="M493.2,100.2c-1.2,0-2.4-0.2-3.4-0.7c-1.1-0.5-2-1.1-2.8-1.9c-0.8-0.8-1.4-1.7-1.9-2.8
				c-0.5-1.1-0.7-2.2-0.7-3.4c0-1.4,0.2-2.8,0.6-4c0.4-1.2,1-2.3,1.8-3.2c0.8-0.9,1.7-1.6,2.8-2.1c1.1-0.5,2.3-0.8,3.6-0.8
				c1.2,0,2.2,0.2,3.2,0.6c1,0.4,1.8,1,2.5,1.7c0.7,0.7,1.3,1.5,1.6,2.4c0.4,0.9,0.6,1.9,0.6,2.9h-13.4c0,1.2,0.2,2.3,0.5,3.3
				c0.3,1,0.7,1.9,1.3,2.7c0.6,0.7,1.2,1.3,2,1.8c0.8,0.4,1.6,0.6,2.5,0.6c0.8,0,1.5-0.1,2.2-0.4c0.7-0.3,1.4-0.6,1.9-1
				c0.6-0.4,1.1-0.9,1.5-1.4s0.7-1.1,0.9-1.6l1,0.5c-0.3,0.9-0.7,1.8-1.2,2.6c-0.6,0.8-1.2,1.5-2,2.1c-0.8,0.6-1.6,1.1-2.5,1.4
				C495,100,494.1,100.2,493.2,100.2z M496.7,87.6c0-0.7-0.1-1.3-0.4-1.9c-0.2-0.6-0.6-1.1-1-1.5c-0.4-0.4-0.9-0.8-1.5-1
				c-0.6-0.2-1.2-0.4-1.8-0.4c-0.5,0-1.1,0.1-1.5,0.4c-0.5,0.2-0.9,0.6-1.3,1c-0.4,0.4-0.7,0.9-1,1.5c-0.3,0.6-0.4,1.2-0.4,1.9
				L496.7,87.6z"/>
			<path class="st2" d="M507.5,81.5h0.5l0.5,3.7c0.3-0.5,0.6-1,1.1-1.5c0.4-0.4,0.9-0.8,1.4-1.2c0.5-0.3,1-0.6,1.6-0.8
				c0.6-0.2,1.1-0.3,1.7-0.3c0.5,0,1,0.1,1.5,0.2c0.5,0.1,1,0.4,1.4,0.7l-1.1,3c-0.2-0.3-0.5-0.5-0.7-0.6c-0.3-0.2-0.5-0.3-0.8-0.4
				c-0.3-0.1-0.5-0.1-0.8-0.2c-0.3,0-0.6,0-0.8,0c-0.4,0-0.9,0.1-1.3,0.2c-0.4,0.1-0.8,0.3-1.2,0.6c-0.4,0.3-0.7,0.6-1.1,1
				c-0.3,0.4-0.6,0.9-0.9,1.4v12.5h-3.6V82.5L507.5,81.5z"/>
			<path class="st2" d="M524.1,98.9c0.5,0,0.9-0.1,1.3-0.2c0.4-0.1,0.8-0.3,1.1-0.6c0.3-0.2,0.5-0.5,0.7-0.9c0.2-0.3,0.2-0.7,0.2-1
				c0-0.6-0.1-1-0.4-1.4c-0.3-0.4-0.6-0.8-1.1-1.1c-0.4-0.3-1-0.6-1.5-0.9c-0.6-0.3-1.2-0.5-1.8-0.8c-0.6-0.3-1.2-0.6-1.8-0.9
				c-0.6-0.3-1.1-0.7-1.5-1.1c-0.5-0.4-0.8-0.9-1.1-1.5c-0.3-0.6-0.4-1.2-0.4-2c0-0.7,0.2-1.4,0.5-2c0.3-0.6,0.7-1.1,1.3-1.6
				c0.5-0.4,1.2-0.8,1.9-1c0.7-0.3,1.6-0.4,2.5-0.4c0.6,0,1.2,0,1.7,0.1c0.5,0.1,1,0.2,1.5,0.5c0.5,0.2,1,0.6,1.5,1
				c0.5,0.4,1,1,1.6,1.7l-1.3,1.2c-0.7-1.1-1.4-1.9-2.3-2.5c-0.8-0.5-1.7-0.8-2.7-0.8c-0.5,0-1,0.1-1.4,0.2
				c-0.4,0.1-0.8,0.3-1.1,0.5c-0.3,0.2-0.5,0.5-0.7,0.8c-0.2,0.3-0.3,0.6-0.3,0.9c0,0.5,0.2,1,0.4,1.4c0.3,0.4,0.7,0.8,1.2,1.1
				c0.5,0.3,1,0.6,1.7,0.9c0.6,0.3,1.3,0.5,1.9,0.8c0.7,0.3,1.3,0.6,1.9,0.9c0.6,0.3,1.2,0.7,1.7,1.1c0.5,0.4,0.9,0.9,1.2,1.5
				c0.3,0.6,0.4,1.2,0.4,2c0,0.8-0.1,1.5-0.4,2.1c-0.3,0.7-0.7,1.2-1.3,1.7c-0.6,0.5-1.3,0.9-2.1,1.1s-1.9,0.4-3,0.4
				c-0.5,0-1.1,0-1.6-0.1c-0.6-0.1-1.1-0.2-1.7-0.5c-0.6-0.2-1.1-0.6-1.7-1c-0.6-0.4-1.1-1-1.6-1.7l1.5-1.3c0.4,0.6,0.8,1.1,1.2,1.5
				c0.4,0.4,0.8,0.8,1.2,1.1c0.4,0.3,0.8,0.5,1.3,0.6C523.1,98.9,523.5,98.9,524.1,98.9z"/>
		</g>
	</g>
	<g>
		<g>
			<circle class="st1" cx="98.5" cy="89.4" r="1"/>
		</g>
		<g>
			<path class="st1" d="M95.8,89.6h-0.7c0.1,1.4,1.1,2.6,2.4,3.1l0,0l0.8,3.2v-3c0,0,0,0,0,0V92C97,92,95.9,90.9,95.8,89.6z"/>
			<path class="st1" d="M98.3,86.7v-0.7c-1.4,0.1-2.7,1.1-3.1,2.4l0,0l-3.2,0.8h3c0,0,0,0,0,0h0.7C95.9,87.8,97,86.8,98.3,86.7z"/>
			<path class="st1" d="M101.2,89.2h0.7c-0.1-1.5-1.1-2.7-2.4-3.1l0,0l-0.8-3.1v3.7C100,86.8,101.1,87.8,101.2,89.2z"/>
			<path class="st1" d="M98.7,92v0.7c1.4-0.1,2.6-1.1,3.1-2.4l0,0l3.1-0.8h-3.7C101.1,90.9,100,91.9,98.7,92z"/>
		</g>
		<g>
			<path class="st1" d="M109.1,90.1h2.9c-0.3,5.7-4.2,10.5-9.4,12.2l0,0l-3.3,15.3v-14.7c0,0,0,0,0,0V100
				C104.5,99.6,108.7,95.4,109.1,90.1z"/>
			<path class="st1" d="M99.2,78.7v-2.9c5.7,0.3,10.5,4.2,12.2,9.5l0,0l15.3,3.3H112c0,0,0,0,0,0h-2.9
				C108.7,83.3,104.5,79.1,99.2,78.7z"/>
			<path class="st1" d="M87.8,88.6h-2.9c0.3-5.7,4.2-10.5,9.5-12.2l0,0l3.3-15.2v17.5C92.4,79.1,88.2,83.3,87.8,88.6z"/>
			<path class="st1" d="M97.7,100v2.9c-5.7-0.3-10.5-4.2-12.2-9.4l0,0l-15.2-3.3h17.5C88.2,95.4,92.4,99.6,97.7,100z"/>
		</g>
	</g>
</g>
</svg>
